# xmcd
#
# Track frame offsets: 
#        150
#        13055
#        27037
#        44247
#        58152
#        74700
#        84015
#        94020
#        105417
#        117787
#        136072
#        149515
#
# Disc length: 2306 seconds
#
# Revision: 7
# Processed by: cddbd v1.5.2PL0 Copyright (c) Steve Scherf et al.
# Submitted via: ExactAudioCopy v1.0b1
#
DISCID=a209000c
DTITLE=Commander Cody and His Lost Planet Airmen - Lost in the Ozone
DYEAR=1971
DGENRE=Country
TTITLE0=Back to Tennessee
TTITLE1=Wine Do Yer Stuff
TTITLE2=Seeds and Stems Again Blues
TTITLE3=Daddy's Gonna Treat You Right
TTITLE4=Family Bible
TTITLE5=My Home in My Hand
TTITLE6=Lost in the Ozone
TTITLE7=Midnight Shift
TTITLE8=Hot Rod Lincoln
TTITLE9=What's the Matter Now?
TTITLE10=20 Flight Rock
TTITLE11=Beat Me Daddy, Eight to the Bar
EXTD=
EXTT0=
EXTT1=
EXTT2=
EXTT3=
EXTT4=
EXTT5=
EXTT6=
EXTT7=
EXTT8=
EXTT9=
EXTT10=
EXTT11=
PLAYORDER=
